<svg width="2000" height="812" viewBox="0 0 2000 812" fill="none" xmlns="http://www.w3.org/2000/svg">
<path d="M0 0H2000V610.4H1000H0V0ZM0 731.36L500 812L1000 771.68H1500L2000 812V610.4H1000H0V731.36ZM0 0H2000V610.4H1000H0V0ZM0 731.36L500 812L1000 771.68H1500L2000 812V610.4H1000H0V731.36Z" fill="#E74040"/>
<path fill-rule="evenodd" clip-rule="evenodd" d="M0 0H2000V610.4H1000H0V0ZM0 731.36L500 812L1000 771.68H1500L2000 812V610.4H1000H0V731.36ZM0 0H2000V610.4H1000H0V0ZM0 731.36L500 812L1000 771.68H1500L2000 812V610.4H1000H0V731.36Z" fill="#E74040"/>
</svg>
