<svg width="1440" height="651" viewBox="0 0 1440 651" fill="none" xmlns="http://www.w3.org/2000/svg">
<path d="M0 0.5H1440V489.121H720H0V0.5ZM0 585.948L360 650.5L720 618.224H1080L1440 650.5V489.121H720H0V585.948ZM0 0.5H1440V489.121H720H0V0.5ZM0 585.948L360 650.5L720 618.224H1080L1440 650.5V489.121H720H0V585.948Z" fill="#E74040"/>
<path fill-rule="evenodd" clip-rule="evenodd" d="M0 0.5H1440V489.121H720H0V0.5ZM0 585.948L360 650.5L720 618.224H1080L1440 650.5V489.121H720H0V585.948ZM0 0.5H1440V489.121H720H0V0.5ZM0 585.948L360 650.5L720 618.224H1080L1440 650.5V489.121H720H0V585.948Z" fill="#E74040"/>
</svg>
