<svg width="2000" height="659" viewBox="0 0 2000 659" fill="none" xmlns="http://www.w3.org/2000/svg">
<path d="M0 0H2000V495.386H1000H0V0ZM0 593.555L500 659L1000 626.277H1500L2000 659V495.386H1000H0V593.555ZM0 0H2000V495.386H1000H0V0ZM0 593.555L500 659L1000 626.277H1500L2000 659V495.386H1000H0V593.555Z" fill="#E74040"/>
<path fill-rule="evenodd" clip-rule="evenodd" d="M0 0H2000V495.386H1000H0V0ZM0 593.555L500 659L1000 626.277H1500L2000 659V495.386H1000H0V593.555ZM0 0H2000V495.386H1000H0V0ZM0 593.555L500 659L1000 626.277H1500L2000 659V495.386H1000H0V593.555Z" fill="#E74040"/>
</svg>
