<svg width="2000" height="650" viewBox="0 0 2000 650" fill="none" xmlns="http://www.w3.org/2000/svg">
<path d="M0 0H2000V488.621H1000H0V0ZM0 585.448L500 650L1000 617.724H1500L2000 650V488.621H1000H0V585.448ZM0 0H2000V488.621H1000H0V0ZM0 585.448L500 650L1000 617.724H1500L2000 650V488.621H1000H0V585.448Z" fill="#E74040"/>
<path fill-rule="evenodd" clip-rule="evenodd" d="M0 0H2000V488.621H1000H0V0ZM0 585.448L500 650L1000 617.724H1500L2000 650V488.621H1000H0V585.448ZM0 0H2000V488.621H1000H0V0ZM0 585.448L500 650L1000 617.724H1500L2000 650V488.621H1000H0V585.448Z" fill="#E74040"/>
</svg>
